<mxfile host="app.diagrams.net" agent="Mozilla/5.0 (Windows NT 10.0; Win64; x64) AppleWebKit/537.36 (KHTML, like Gecko) Chrome/134.0.0.0 Safari/537.36 OPR/119.0.0.0" version="27.1.6">
  <diagram name="Page-1" id="2iCLpxrJvU2W4YV_mJdw">
    <mxGraphModel dx="1611" dy="777" grid="1" gridSize="10" guides="1" tooltips="1" connect="1" arrows="1" fold="1" page="1" pageScale="1" pageWidth="827" pageHeight="1169" math="0" shadow="0">
      <root>
        <mxCell id="0" />
        <mxCell id="1" parent="0" />
        <mxCell id="geH41r_0WsrrPUxCuug2-9" value="" style="edgeStyle=orthogonalEdgeStyle;rounded=0;orthogonalLoop=1;jettySize=auto;html=1;" edge="1" parent="1" source="geH41r_0WsrrPUxCuug2-1" target="geH41r_0WsrrPUxCuug2-2">
          <mxGeometry relative="1" as="geometry" />
        </mxCell>
        <mxCell id="geH41r_0WsrrPUxCuug2-1" value="inicio" style="ellipse;whiteSpace=wrap;html=1;" vertex="1" parent="1">
          <mxGeometry x="330" y="20" width="120" height="80" as="geometry" />
        </mxCell>
        <mxCell id="geH41r_0WsrrPUxCuug2-10" value="" style="edgeStyle=orthogonalEdgeStyle;rounded=0;orthogonalLoop=1;jettySize=auto;html=1;" edge="1" parent="1" source="geH41r_0WsrrPUxCuug2-2" target="geH41r_0WsrrPUxCuug2-3">
          <mxGeometry relative="1" as="geometry" />
        </mxCell>
        <mxCell id="geH41r_0WsrrPUxCuug2-2" value="Abrir archivo &quot;informe_usuarios.txt&quot;&amp;nbsp;" style="rounded=0;whiteSpace=wrap;html=1;" vertex="1" parent="1">
          <mxGeometry x="250" y="130" width="280" height="60" as="geometry" />
        </mxCell>
        <mxCell id="geH41r_0WsrrPUxCuug2-12" value="" style="edgeStyle=orthogonalEdgeStyle;rounded=0;orthogonalLoop=1;jettySize=auto;html=1;" edge="1" parent="1" source="geH41r_0WsrrPUxCuug2-3" target="geH41r_0WsrrPUxCuug2-11">
          <mxGeometry relative="1" as="geometry">
            <Array as="points">
              <mxPoint x="150" y="270" />
              <mxPoint x="150" y="350" />
            </Array>
          </mxGeometry>
        </mxCell>
        <mxCell id="geH41r_0WsrrPUxCuug2-3" value="Recorrer lista de usuarios" style="rounded=0;whiteSpace=wrap;html=1;" vertex="1" parent="1">
          <mxGeometry x="250" y="240" width="280" height="60" as="geometry" />
        </mxCell>
        <mxCell id="geH41r_0WsrrPUxCuug2-13" value="" style="edgeStyle=orthogonalEdgeStyle;rounded=0;orthogonalLoop=1;jettySize=auto;html=1;" edge="1" parent="1" source="geH41r_0WsrrPUxCuug2-4" target="geH41r_0WsrrPUxCuug2-5">
          <mxGeometry relative="1" as="geometry" />
        </mxCell>
        <mxCell id="geH41r_0WsrrPUxCuug2-4" value="Formatear linea" style="rounded=0;whiteSpace=wrap;html=1;" vertex="1" parent="1">
          <mxGeometry x="10" y="360" width="280" height="60" as="geometry" />
        </mxCell>
        <mxCell id="geH41r_0WsrrPUxCuug2-14" value="" style="edgeStyle=orthogonalEdgeStyle;rounded=0;orthogonalLoop=1;jettySize=auto;html=1;" edge="1" parent="1" source="geH41r_0WsrrPUxCuug2-5" target="geH41r_0WsrrPUxCuug2-6">
          <mxGeometry relative="1" as="geometry" />
        </mxCell>
        <mxCell id="geH41r_0WsrrPUxCuug2-5" value="Escribir linea en archivo" style="rounded=0;whiteSpace=wrap;html=1;" vertex="1" parent="1">
          <mxGeometry x="10" y="480" width="280" height="60" as="geometry" />
        </mxCell>
        <mxCell id="geH41r_0WsrrPUxCuug2-15" value="" style="edgeStyle=orthogonalEdgeStyle;rounded=0;orthogonalLoop=1;jettySize=auto;html=1;" edge="1" parent="1" source="geH41r_0WsrrPUxCuug2-6" target="geH41r_0WsrrPUxCuug2-7">
          <mxGeometry relative="1" as="geometry" />
        </mxCell>
        <mxCell id="geH41r_0WsrrPUxCuug2-18" value="" style="edgeStyle=orthogonalEdgeStyle;rounded=0;orthogonalLoop=1;jettySize=auto;html=1;" edge="1" parent="1" source="geH41r_0WsrrPUxCuug2-6" target="geH41r_0WsrrPUxCuug2-17">
          <mxGeometry relative="1" as="geometry" />
        </mxCell>
        <mxCell id="geH41r_0WsrrPUxCuug2-6" value="mas usuarios?" style="rhombus;whiteSpace=wrap;html=1;" vertex="1" parent="1">
          <mxGeometry x="90" y="600" width="120" height="110" as="geometry" />
        </mxCell>
        <mxCell id="geH41r_0WsrrPUxCuug2-16" value="" style="edgeStyle=orthogonalEdgeStyle;rounded=0;orthogonalLoop=1;jettySize=auto;html=1;" edge="1" parent="1" source="geH41r_0WsrrPUxCuug2-7" target="geH41r_0WsrrPUxCuug2-8">
          <mxGeometry relative="1" as="geometry" />
        </mxCell>
        <mxCell id="geH41r_0WsrrPUxCuug2-7" value="Cerrar archivo" style="rounded=0;whiteSpace=wrap;html=1;" vertex="1" parent="1">
          <mxGeometry x="10" y="750" width="280" height="60" as="geometry" />
        </mxCell>
        <mxCell id="geH41r_0WsrrPUxCuug2-8" value="Fin" style="ellipse;whiteSpace=wrap;html=1;" vertex="1" parent="1">
          <mxGeometry x="90" y="910" width="120" height="80" as="geometry" />
        </mxCell>
        <mxCell id="geH41r_0WsrrPUxCuug2-11" value="" style="shape=waypoint;sketch=0;size=6;pointerEvents=1;points=[];fillColor=default;resizable=0;rotatable=0;perimeter=centerPerimeter;snapToPoint=1;rounded=0;" vertex="1" parent="1">
          <mxGeometry x="140" y="340" width="20" height="20" as="geometry" />
        </mxCell>
        <mxCell id="geH41r_0WsrrPUxCuug2-17" value="" style="shape=waypoint;sketch=0;size=6;pointerEvents=1;points=[];fillColor=default;resizable=0;rotatable=0;perimeter=centerPerimeter;snapToPoint=1;" vertex="1" parent="1">
          <mxGeometry x="380" y="300" width="20" height="20" as="geometry" />
        </mxCell>
        <mxCell id="geH41r_0WsrrPUxCuug2-19" value="Si" style="text;html=1;align=center;verticalAlign=middle;whiteSpace=wrap;rounded=0;" vertex="1" parent="1">
          <mxGeometry x="330" y="620" width="60" height="30" as="geometry" />
        </mxCell>
        <mxCell id="geH41r_0WsrrPUxCuug2-20" value="No" style="text;html=1;align=center;verticalAlign=middle;whiteSpace=wrap;rounded=0;" vertex="1" parent="1">
          <mxGeometry x="80" y="720" width="60" height="30" as="geometry" />
        </mxCell>
      </root>
    </mxGraphModel>
  </diagram>
</mxfile>
